<svg width="32" height="32" viewBox="0 0 32 32" fill="none" xmlns="http://www.w3.org/2000/svg">
<path d="M16 30.3928C23.9489 30.3928 30.3929 23.9489 30.3929 16C30.3929 8.05103 23.9489 1.60715 16 1.60715C8.05105 1.60715 1.60715 8.05103 1.60715 16C1.60715 23.9489 8.05105 30.3928 16 30.3928Z" stroke="url(#paint0_linear_632_1240)" stroke-width="2.78571"/>
<path fill-rule="evenodd" clip-rule="evenodd" d="M19.1885 6.62704C17.5295 6.81828 16.1091 7.50487 14.9271 8.6868C13.5171 10.0708 12.812 11.8856 12.812 14.1313V25.3728H14.3004V14.3272C14.3004 12.447 14.8619 10.9064 15.9847 9.7052C16.8729 8.7757 17.9408 8.21383 19.1885 8.01957V6.62704Z" fill="#092054"/>
<path d="M19.1885 6.62704H20.2177V5.47234L19.0706 5.60458L19.1885 6.62704ZM14.9271 8.6868L15.6481 9.42139L15.6549 9.41459L14.9271 8.6868ZM12.812 25.3728H11.7828V26.4021H12.812V25.3728ZM14.3004 25.3728V26.4021H15.3297V25.3728H14.3004ZM15.9847 9.7052L15.2405 8.9941L15.2328 9.00235L15.9847 9.7052ZM19.1885 8.01957L19.3468 9.03656L20.2177 8.90096V8.01957H19.1885ZM19.0706 5.60458C17.1807 5.82244 15.5454 6.61302 14.1994 7.95902L15.6549 9.41459C16.6728 8.39671 17.8784 7.81412 19.3063 7.64951L19.0706 5.60458ZM14.2062 7.95225C12.5713 9.55684 11.7828 11.6505 11.7828 14.1313H13.8412C13.8412 12.1207 14.4628 10.5847 15.6481 9.42136L14.2062 7.95225ZM11.7828 14.1313V25.3728H13.8412V14.1313H11.7828ZM12.812 26.4021H14.3004V24.3436H12.812V26.4021ZM15.3297 25.3728V14.3272H13.2712V25.3728H15.3297ZM15.3297 14.3272C15.3297 12.6678 15.8177 11.3911 16.7366 10.4081L15.2328 9.00235C13.9061 10.4217 13.2712 12.2263 13.2712 14.3272H15.3297ZM16.7288 10.4163C17.4638 9.64714 18.3271 9.19532 19.3468 9.03656L19.0301 7.00259C17.5545 7.23233 16.282 7.90426 15.2406 8.99414L16.7288 10.4163ZM20.2177 8.01957V6.62704H18.1592V8.01957H20.2177Z" fill="#092054"/>
<defs>
<linearGradient id="paint0_linear_632_1240" x1="16" y1="-1.99047" x2="35.8012" y2="1.63663" gradientUnits="userSpaceOnUse">
<stop stop-color="#092054"/>
<stop offset="0.473958" stop-color="#092054"/>
<stop offset="1" stop-color="#5E88E6" stop-opacity="0.44"/>
</linearGradient>
</defs>
</svg>
