<svg width="24" height="24" viewBox="0 0 24 24" fill="none" xmlns="http://www.w3.org/2000/svg">
<mask id="mask0_630_639" style="mask-type:luminance" maskUnits="userSpaceOnUse" x="4" y="3" width="16" height="19">
<path fill-rule="evenodd" clip-rule="evenodd" d="M10.3417 19.5083C10.3417 20.425 11.0833 21.1667 12 21.1667C12.9167 21.1667 13.6583 20.425 13.6583 19.5083H10.3417ZM17.7333 16.0167V11.1667C17.7333 8.45832 15.8583 6.19166 13.325 5.59166V4.99166C13.325 4.25832 12.7333 3.66666 12 3.66666C11.2667 3.66666 10.675 4.25832 10.675 4.99166V5.59166C8.14167 6.19166 6.26667 8.45832 6.26667 11.1667V16.0167L4.5 17.7833V18.6667H19.5V17.7833L17.7333 16.0167Z" fill="white"/>
</mask>
<g mask="url(#mask0_630_639)">
<rect x="1.1665" y="1.16666" width="21.6667" height="21.6667" fill="#092054"/>
</g>
</svg>
